<?xml version="1.0" encoding="utf-8"?>
<!-- Generator: Adobe Illustrator 19.0.0, SVG Export Plug-In . SVG Version: 6.00 Build 0)  -->
<svg version="1.1" id="Layer_1" xmlns="http://www.w3.org/2000/svg" xmlns:xlink="http://www.w3.org/1999/xlink" x="0px" y="0px"
	 viewBox="90 91 792 612" style="enable-background:new 90 91 792 612;" xml:space="preserve">
<style type="text/css">
	.st0{fill:#FFFFFF;}
	.st1{fill:#7A9C49;}
	.st2{fill:#6DABE4;}
</style>
<g>
	<g>
		<g>
			<path d="M837.3,339.9c0,4.1-3.2,7.3-7.4,7.3c-4.1,0-7.4-3.2-7.4-7.3c0-4,3.3-7.2,7.4-7.2C834.1,332.7,837.3,335.9,837.3,339.9z
				 M824.4,339.9c0,3.2,2.4,5.8,5.6,5.8c3.2,0,5.5-2.5,5.5-5.7c0-3.2-2.3-5.8-5.5-5.8S824.4,336.7,824.4,339.9z M828.8,343.7h-1.7
				v-7.2c0.7-0.1,1.6-0.2,2.8-0.2c1.4,0,2,0.2,2.5,0.5c0.4,0.3,0.7,0.9,0.7,1.6c0,0.8-0.6,1.4-1.5,1.7v0.1c0.7,0.3,1.1,0.8,1.3,1.8
				c0.2,1.1,0.4,1.5,0.5,1.8h-1.8c-0.2-0.3-0.4-0.9-0.6-1.8c-0.1-0.8-0.6-1.1-1.5-1.1h-0.8V343.7z M828.9,339.6h0.8
				c0.9,0,1.7-0.3,1.7-1.1c0-0.7-0.5-1.1-1.5-1.1c-0.4,0-0.7,0-0.9,0.1V339.6z"/>
		</g>
		<circle class="st0" cx="223.6" cy="356.5" r="72.3"/>
		<g>
			<g>
				<path class="st1" d="M283,346.8c-2.1,0-4.2,1.2-5.8,3.3l-20.3,26.9c-3.4,4.5-8.2,7-13.1,7c0,0,0,0,0,0c0,0,0,0,0,0
					c-5,0-9.8-2.6-13.1-7l-20.3-26.9c-1.6-2.1-3.7-3.3-5.8-3.3c-2.1,0-4.2,1.2-5.8,3.3l-20.3,26.9c-3.3,4.4-8.1,7-13,7
					c10.4,21.9,32.6,37,58.4,37c35.7,0,64.6-28.9,64.6-64.6c0-2.5-0.2-5-0.5-7.4C286.4,347.6,284.7,346.8,283,346.8z"/>
			</g>
			<path class="st2" d="M223.6,291.8c-35.7,0-64.7,28.9-64.7,64.7c0,5.7,0.8,11.2,2.2,16.4c1.2,0.9,2.6,1.5,4,1.5
				c2.1,0,4.2-1.2,5.8-3.3l20.3-26.9c3.4-4.5,8.2-7,13.1-7c5,0,9.7,2.6,13.1,7l19.6,25.9l0.8,1c1.6,2.1,3.7,3.3,5.8,3.3
				c2.1,0,4.2-1.2,5.8-3.3l0.9-1l19.6-25.9c3.4-4.5,8.1-7,13.1-7c0.8,0,1.6,0.1,2.4,0.2C277.2,311,252.6,291.8,223.6,291.8z
				 M245.2,332.9c-3.7,0-6.8-3-6.8-6.8c0-3.7,3-6.8,6.8-6.8c3.7,0,6.8,3,6.8,6.8C251.9,329.8,248.9,332.9,245.2,332.9z"/>
		</g>
	</g>
	<g>
		<g>
			<path d="M328,401.8c-4.2-0.9-7.6-2.4-10-4.7c-2.5-2.2-4.2-5.3-5.2-9.1c-1-3.8-1.5-8.6-1.5-14.4v-8.9c0-6.9,0.5-12.4,1.6-16.6
				c1-4.2,2.8-7.4,5.4-9.7c2.5-2.3,5.9-3.8,10.2-4.6c4.3-0.8,9.7-1.2,16.3-1.2h15c6.9,0,12.6,0.3,17,1c4.5,0.6,8,1.8,10.5,3.6
				c2.6,1.8,4.4,4.2,5.4,7.3c1,3.1,1.5,7.1,1.5,12.1h-17.4c0-1.4-0.2-2.6-0.6-3.6c-0.4-1-1.2-1.9-2.4-2.6c-1.2-0.7-3-1.2-5.4-1.6
				c-2.4-0.3-5.5-0.5-9.5-0.5h-13c-3.8,0-6.8,0.2-9.2,0.5c-2.3,0.3-4.1,1-5.4,2.1c-1.3,1.1-2.1,2.7-2.5,4.9
				c-0.4,2.2-0.6,5.1-0.6,8.8v7.7c0,3.5,0.2,6.2,0.6,8.2c0.4,2,1.2,3.6,2.4,4.7c1.2,1.1,2.9,1.8,5.2,2.2c2.2,0.3,5.2,0.5,8.8,0.5
				h13.8c3.7,0,6.7-0.1,9.1-0.3c2.3-0.2,4.1-0.6,5.4-1.3c1.3-0.7,2.1-1.6,2.6-2.8c0.4-1.2,0.7-2.8,0.7-4.8h17.4
				c0,4.7-0.4,8.6-1.2,11.7c-0.8,3.1-2.4,5.7-4.9,7.5c-2.5,1.9-6,3.2-10.6,4.1c-4.6,0.8-10.6,1.2-18.1,1.2h-15.4
				C337.6,403.1,332.2,402.7,328,401.8z"/>
			<path d="M477.8,332.7v14h-55.1v13h53.4v14.1h-53.4v15.2h55.1V403h-71.9v-70.3H477.8z"/>
			<path d="M545.9,332.7c8.9,0,15.4,1.6,19.7,4.9c4.3,3.2,6.4,8.2,6.4,15h-18.1c0-1.1-0.1-2-0.4-2.7c-0.2-0.7-0.7-1.3-1.3-1.8
				c-0.6-0.5-1.5-0.8-2.6-1c-1.1-0.2-2.6-0.3-4.3-0.3h-28.3c-2.4,0-4.3,0.4-5.9,1.3c-1.6,0.8-2.3,2.6-2.3,5.3c0,1.4,0.2,2.5,0.6,3.3
				c0.4,0.8,1,1.4,1.7,1.7c0.7,0.4,1.6,0.6,2.6,0.7c1,0.1,2.1,0.2,3.3,0.2l31.1,1.2c4,0.1,7.5,0.5,10.5,1c3,0.5,5.5,1.5,7.5,2.9
				c2,1.5,3.5,3.5,4.5,6.2c1,2.7,1.5,6.4,1.5,11c0,3.8-0.4,7-1.2,9.7c-0.8,2.7-2.1,4.9-4,6.6c-1.9,1.8-4.3,3-7.3,3.9
				c-3,0.8-6.8,1.2-11.1,1.2h-34.9c-4.5,0-8.2-0.4-11.2-1.2c-3-0.8-5.5-2-7.3-3.7c-1.9-1.7-3.2-3.7-4-6.2c-0.8-2.5-1.2-5.4-1.2-8.8
				H507c0,1.8,0.8,3.2,2.3,4.3c1.6,1.1,3.5,1.6,5.9,1.6h28.2c3.7,0,6.5-0.5,8.3-1.4c1.8-0.9,2.7-2.8,2.7-5.7c0-1.3-0.2-2.4-0.5-3.3
				c-0.3-0.9-0.9-1.7-1.8-2.3c-0.9-0.6-2-1.1-3.6-1.5c-1.5-0.3-3.5-0.6-5.9-0.7l-27-1.1c-4.8-0.2-8.8-0.5-12.1-1
				c-3.3-0.5-6-1.4-8.1-2.7c-2.1-1.3-3.6-3.2-4.5-5.8c-0.9-2.5-1.4-6-1.4-10.4c0-3.7,0.5-6.9,1.4-9.5c0.9-2.6,2.4-4.7,4.5-6.3
				c2-1.6,4.6-2.8,7.9-3.5c3.2-0.7,7.1-1.1,11.6-1.1H545.9z"/>
			<path d="M583.8,332.7h16.8V403h-16.8V332.7z"/>
			<path d="M629.3,376.3c0,2.4,0.3,4.5,0.8,6.1c0.5,1.6,1.4,2.9,2.6,3.9c1.2,0.9,2.7,1.6,4.7,2c2,0.4,4.4,0.6,7.2,0.6h18.2
				c2.7,0,5-0.2,6.9-0.6c1.9-0.4,3.4-1.1,4.6-2.1c1.1-1,2-2.3,2.5-3.9c0.5-1.6,0.8-3.6,0.8-6.1v-43.6h16.9v45.3
				c0,4.7-0.5,8.6-1.4,11.7c-0.9,3.2-2.5,5.7-4.8,7.7c-2.2,2-5.2,3.4-8.9,4.3c-3.7,0.9-8.2,1.3-13.6,1.3h-24.9
				c-5.2,0-9.6-0.5-13.2-1.4c-3.6-0.9-6.5-2.4-8.8-4.4c-2.3-2-4-4.6-5-7.8c-1-3.2-1.5-7-1.5-11.4v-45.3h16.8V376.3z"/>
			<path d="M732.4,332.7l29,51.8l30-51.8h25.2V403h-16.9v-51.7L770.5,403h-18.2l-29.1-51.7V403h-16.8v-70.3H732.4z"/>
		</g>
	</g>
</g>
</svg>
