<?xml version="1.0" encoding="utf-8"?>
<!-- Generator: Adobe Illustrator 15.1.0, SVG Export Plug-In . SVG Version: 6.00 Build 0)  -->
<!DOCTYPE svg PUBLIC "-//W3C//DTD SVG 1.1//EN" "http://www.w3.org/Graphics/SVG/1.1/DTD/svg11.dtd">
<svg version="1.1" id="Layer_1" xmlns="http://www.w3.org/2000/svg" xmlns:xlink="http://www.w3.org/1999/xlink" x="0px" y="0px"
	 width="792px" height="612px" viewBox="0 0 792 612" enable-background="new 0 0 792 612" xml:space="preserve">
<g>
	<g>
		<g>
			<path d="M236.421,350.568c-4.225-0.877-7.57-2.432-10.041-4.664c-2.465-2.234-4.203-5.262-5.217-9.072
				c-1.021-3.826-1.523-8.648-1.523-14.463v-8.924c0-6.9,0.52-12.443,1.57-16.633c1.049-4.195,2.838-7.422,5.371-9.691
				c2.545-2.264,5.951-3.785,10.248-4.564c4.293-0.771,9.721-1.164,16.281-1.164h15.012c6.893,0,12.582,0.318,17.039,0.959
				c4.471,0.648,7.979,1.85,10.551,3.605c2.568,1.76,4.361,4.189,5.379,7.297c1.012,3.113,1.516,7.141,1.516,12.076h-17.445
				c0-1.354-0.182-2.555-0.559-3.602c-0.367-1.049-1.168-1.928-2.383-2.639c-1.215-0.709-3.01-1.232-5.373-1.572
				c-2.369-0.336-5.545-0.504-9.535-0.504h-12.982c-3.787,0-6.85,0.15-9.186,0.459c-2.332,0.301-4.121,0.998-5.371,2.072
				c-1.252,1.082-2.082,2.705-2.484,4.869c-0.406,2.17-0.611,5.107-0.611,8.832v7.701c0,3.453,0.205,6.195,0.611,8.219
				c0.402,2.031,1.217,3.605,2.436,4.717c1.215,1.117,2.938,1.84,5.168,2.18c2.238,0.342,5.176,0.51,8.824,0.51h13.799
				c3.721,0,6.74-0.104,9.076-0.307c2.33-0.203,4.139-0.641,5.424-1.318c1.283-0.672,2.154-1.625,2.588-2.838
				c0.445-1.223,0.664-2.812,0.664-4.771h17.443c0,4.672-0.389,8.574-1.168,11.719c-0.773,3.143-2.396,5.664-4.869,7.555
				c-2.465,1.896-6.004,3.248-10.6,4.061c-4.598,0.809-10.646,1.217-18.15,1.217h-15.418
				C246.003,351.889,240.647,351.447,236.421,350.568z"/>
			<path d="M386.394,281.393v13.996h-55.182v12.986h53.451v14.098h-53.451v15.211h55.182v14.102h-72.021v-70.393H386.394z"/>
			<path d="M454.55,281.393c8.861,0,15.422,1.623,19.678,4.865c4.258,3.25,6.395,8.25,6.395,15.018h-18.158
				c0-1.082-0.115-1.998-0.352-2.744c-0.242-0.738-0.676-1.35-1.32-1.822c-0.641-0.475-1.521-0.814-2.641-1.014
				c-1.115-0.205-2.553-0.307-4.307-0.307H425.54c-2.361,0-4.326,0.42-5.873,1.266c-1.566,0.848-2.334,2.623-2.334,5.324
				c0,1.422,0.197,2.523,0.6,3.301c0.408,0.777,0.965,1.354,1.674,1.723c0.717,0.377,1.576,0.609,2.59,0.715
				c1.012,0.096,2.125,0.184,3.344,0.25l31.146,1.213c3.984,0.139,7.486,0.461,10.498,0.969c3.008,0.508,5.512,1.486,7.502,2.941
				c1.99,1.453,3.506,3.529,4.514,6.236c1.016,2.703,1.527,6.389,1.527,11.057c0,3.791-0.402,7.01-1.219,9.686
				c-0.812,2.67-2.146,4.885-4.016,6.645c-1.852,1.762-4.305,3.041-7.346,3.855c-3.041,0.816-6.77,1.217-11.16,1.217h-34.893
				c-4.463,0-8.217-0.4-11.26-1.217c-3.041-0.814-5.494-2.047-7.35-3.701c-1.865-1.658-3.18-3.732-3.967-6.244
				c-0.77-2.496-1.156-5.441-1.156-8.82h17.244c0,1.756,0.775,3.182,2.326,4.26c1.557,1.084,3.518,1.621,5.885,1.621h28.201
				c3.715,0,6.496-0.467,8.314-1.418c1.832-0.947,2.73-2.838,2.73-5.678c0-1.291-0.158-2.381-0.498-3.301
				c-0.346-0.912-0.922-1.684-1.773-2.332c-0.852-0.639-2.031-1.129-3.553-1.467s-3.496-0.576-5.934-0.715l-26.984-1.113
				c-4.801-0.201-8.842-0.543-12.109-1.014c-3.291-0.473-5.975-1.369-8.074-2.688c-2.086-1.32-3.596-3.246-4.512-5.781
				c-0.908-2.537-1.371-6.002-1.371-10.398c0-3.717,0.475-6.883,1.424-9.486c0.943-2.596,2.436-4.719,4.459-6.336
				c2.035-1.625,4.652-2.791,7.863-3.5c3.213-0.711,7.086-1.064,11.615-1.064H454.55z"/>
			<path d="M492.55,281.393h16.846v70.393H492.55V281.393z"/>
			<path d="M538.03,325.002c0,2.439,0.266,4.467,0.811,6.088c0.533,1.625,1.402,2.906,2.584,3.857
				c1.184,0.949,2.756,1.625,4.721,2.025c1.955,0.408,4.357,0.611,7.195,0.611h18.268c2.699,0,4.998-0.203,6.896-0.611
				c1.885-0.4,3.408-1.096,4.562-2.076c1.146-0.979,1.998-2.285,2.533-3.906c0.547-1.623,0.812-3.652,0.812-6.084v-43.615h16.945
				v45.338c0,4.666-0.477,8.59-1.43,11.764c-0.943,3.182-2.533,5.752-4.766,7.709c-2.227,1.971-5.186,3.385-8.871,4.268
				c-3.691,0.873-8.24,1.314-13.646,1.314h-24.957c-5.205,0-9.598-0.463-13.18-1.367c-3.582-0.92-6.529-2.387-8.822-4.418
				c-2.303-2.023-3.965-4.629-4.973-7.807c-1.021-3.18-1.521-7.002-1.521-11.463v-45.338h16.838V325.002z"/>
			<path d="M641.249,281.393l29.008,51.832l30.025-51.832h25.252v70.393h-16.938v-51.736l-29.211,51.736h-18.252l-29.119-51.736
				v51.736h-16.832v-70.393H641.249z"/>
		</g>
	</g>
	<g>
		<g>
			<path fill="#5C8727" d="M191.481,295.479c-2.133,0-4.195,1.186-5.818,3.32l-20.348,26.924c-3.367,4.457-8.156,7.008-13.129,7.008
				c-0.006,0-0.021,0-0.037,0s-0.027,0-0.037,0c-4.98,0-9.762-2.551-13.131-7.008l-20.346-26.924c-1.619-2.135-3.68-3.32-5.82-3.32
				c-2.131,0-4.203,1.186-5.812,3.32l-20.355,26.924c-3.346,4.422-8.084,6.967-13.012,7.008
				c10.371,21.873,32.592,37.043,58.41,37.043c35.713,0,64.67-28.961,64.67-64.676c0-2.535-0.178-5.014-0.463-7.447
				C194.833,296.252,193.183,295.479,191.481,295.479z"/>
		</g>
		<path fill="#6CADDF" d="M132.046,240.416c-35.721,0-64.684,28.953-64.684,64.682c0,5.682,0.807,11.164,2.186,16.42
			c1.223,0.941,2.582,1.486,3.971,1.486c2.143,0,4.211-1.176,5.832-3.307l20.346-26.924c3.359-4.463,8.154-7.021,13.119-7.021
			c4.971,0,9.752,2.559,13.125,7.021l19.574,25.895l0.848,1.029c1.611,2.123,3.668,3.293,5.787,3.307
			c2.111-0.014,4.172-1.184,5.781-3.307l0.859-1.029l19.574-25.895c3.363-4.463,8.15-7.021,13.117-7.021
			c0.789,0,1.582,0.088,2.357,0.213C185.681,259.58,161.104,240.416,132.046,240.416z M153.647,281.482
			c-3.74,0-6.756-3.029-6.756-6.764c0-3.729,3.016-6.756,6.756-6.756c3.738,0,6.76,3.027,6.76,6.756
			C160.407,278.453,157.386,281.482,153.647,281.482z"/>
	</g>
</g>
</svg>
