<?xml version="1.0" encoding="utf-8"?>
<!-- Generator: Adobe Illustrator 17.0.0, SVG Export Plug-In . SVG Version: 6.00 Build 0)  -->
<!DOCTYPE svg PUBLIC "-//W3C//DTD SVG 1.1//EN" "http://www.w3.org/Graphics/SVG/1.1/DTD/svg11.dtd">
<svg version="1.1" id="Layer_1" xmlns="http://www.w3.org/2000/svg" xmlns:xlink="http://www.w3.org/1999/xlink" x="0px" y="0px"
	 width="792px" height="612px" viewBox="0 0 792 612" enable-background="new 0 0 792 612" xml:space="preserve">
<g>
	<g>
		<g>
			<path fill="#7A9C49" d="M193.248,255.166c-2.134,0-4.196,1.184-5.817,3.321l-20.343,26.916c-3.37,4.457-8.155,7.009-13.129,7.009
				c-0.005,0-0.022,0-0.034,0c-0.016,0-0.028,0-0.039,0c-4.979,0-9.761-2.553-13.127-7.009l-20.342-26.916
				c-1.62-2.137-3.68-3.321-5.822-3.321c-2.128,0-4.202,1.184-5.811,3.321l-20.35,26.916c-3.346,4.42-8.083,6.969-13.009,7.009
				c10.369,21.869,32.586,37.034,58.399,37.034c35.707,0,64.66-28.954,64.66-64.662c0-2.535-0.179-5.014-0.464-7.448
				C196.597,255.939,194.949,255.166,193.248,255.166z"/>
		</g>
		<path fill="#6DABE4" d="M133.823,200.113c-35.715,0-64.67,28.948-64.67,64.67c0,5.681,0.807,11.161,2.185,16.416
			c1.223,0.942,2.581,1.488,3.969,1.488c2.145,0,4.21-1.176,5.83-3.309l20.342-26.917c3.361-4.464,8.152-7.021,13.116-7.021
			c4.972,0,9.753,2.556,13.124,7.021l19.573,25.886l0.846,1.031c1.611,2.124,3.668,3.294,5.787,3.309
			c2.109-0.015,4.169-1.184,5.777-3.309l0.86-1.031l19.571-25.886c3.364-4.464,8.147-7.021,13.116-7.021
			c0.79,0,1.579,0.087,2.355,0.213C187.447,219.275,162.876,200.113,133.823,200.113z M155.42,241.173
			c-3.737,0-6.753-3.03-6.753-6.762c0-3.727,3.016-6.755,6.753-6.755c3.737,0,6.76,3.028,6.76,6.755
			C162.179,238.143,159.157,241.173,155.42,241.173z"/>
	</g>
	<g>
		<g>
			<g>
				<g>
					<path fill="#231F20" d="M238.026,310.138c-4.228-0.877-7.575-2.432-10.048-4.666c-2.466-2.236-4.205-5.265-5.22-9.079
						c-1.021-3.829-1.524-8.653-1.524-14.47v-8.93c0-6.904,0.521-12.451,1.572-16.642c1.049-4.199,2.839-7.426,5.375-9.697
						c2.546-2.265,5.954-3.788,10.253-4.568c4.296-0.771,9.726-1.165,16.29-1.165h15.021c6.897,0,12.59,0.319,17.05,0.96
						c4.473,0.649,7.983,1.85,10.557,3.608c2.57,1.759,4.364,4.19,5.381,7.301c1.012,3.115,1.516,7.144,1.516,12.083h-17.454
						c0-1.355-0.181-2.557-0.56-3.604c-0.367-1.05-1.168-1.928-2.384-2.64c-1.216-0.71-3.011-1.232-5.376-1.573
						c-2.369-0.337-5.548-0.504-9.541-0.504h-12.989c-3.79,0-6.853,0.15-9.191,0.459c-2.334,0.301-4.123,0.999-5.375,2.074
						c-1.252,1.082-2.082,2.707-2.484,4.871c-0.408,2.171-0.612,5.112-0.612,8.838v7.705c0,3.455,0.204,6.2,0.612,8.224
						c0.402,2.031,1.217,3.607,2.436,4.718c1.215,1.119,2.94,1.843,5.171,2.183c2.239,0.34,5.178,0.509,8.831,0.509h13.806
						c3.723,0,6.745-0.103,9.081-0.308c2.332-0.202,4.141-0.64,5.428-1.318c1.283-0.673,2.155-1.626,2.588-2.841
						c0.445-1.222,0.664-2.813,0.664-4.774h17.454c0,4.675-0.389,8.58-1.168,11.725c-0.775,3.145-2.4,5.669-4.873,7.559
						c-2.465,1.898-6.006,3.251-10.605,4.063c-4.601,0.809-10.653,1.217-18.161,1.217h-15.427
						C247.613,311.458,242.255,311.017,238.026,310.138z"/>
					<path fill="#231F20" d="M388.084,240.922v14.005h-55.213v12.993h53.482v14.107h-53.482v15.218h55.213v14.11h-72.063v-70.433
						H388.084z"/>
					<path fill="#231F20" d="M456.28,240.922c8.869,0,15.433,1.624,19.69,4.868c4.261,3.251,6.397,8.256,6.397,15.027H464.2
						c0-1.083-0.115-1.999-0.352-2.746c-0.242-0.74-0.675-1.351-1.321-1.823c-0.642-0.474-1.524-0.814-2.644-1.013
						c-1.115-0.205-2.555-0.307-4.309-0.307h-28.319c-2.366,0-4.33,0.421-5.88,1.266c-1.565,0.847-2.333,2.625-2.333,5.327
						c0,1.423,0.197,2.524,0.601,3.302c0.407,0.779,0.964,1.355,1.672,1.724c0.718,0.377,1.579,0.61,2.591,0.716
						c1.013,0.096,2.129,0.184,3.349,0.249l31.163,1.215c3.986,0.139,7.491,0.46,10.505,0.968c3.007,0.508,5.513,1.487,7.505,2.944
						c1.991,1.454,3.509,3.531,4.517,6.241c1.016,2.705,1.527,6.392,1.527,11.063c0,3.793-0.404,7.014-1.22,9.691
						c-0.811,2.672-2.147,4.887-4.016,6.649c-1.854,1.762-4.309,3.042-7.352,3.856c-3.041,0.817-6.771,1.217-11.166,1.217h-34.911
						c-4.469,0-8.224-0.401-11.269-1.217c-3.041-0.814-5.496-2.047-7.353-3.703c-1.865-1.659-3.181-3.735-3.967-6.248
						c-0.771-2.498-1.157-5.444-1.157-8.824h17.254c0,1.757,0.775,3.183,2.329,4.262c1.557,1.084,3.519,1.621,5.888,1.621h28.215
						c3.719,0,6.5-0.466,8.32-1.419c1.832-0.948,2.734-2.838,2.734-5.681c0-1.29-0.16-2.382-0.5-3.302
						c-0.345-0.912-0.924-1.684-1.773-2.334c-0.853-0.638-2.031-1.129-3.557-1.467c-1.52-0.338-3.496-0.577-5.936-0.716
						l-26.999-1.114c-4.805-0.202-8.847-0.542-12.117-1.013c-3.293-0.474-5.979-1.371-8.081-2.689
						c-2.087-1.321-3.597-3.249-4.513-5.786c-0.909-2.538-1.371-6.004-1.371-10.403c0-3.719,0.474-6.887,1.423-9.492
						c0.946-2.597,2.437-4.721,4.461-6.339c2.037-1.626,4.654-2.793,7.869-3.502c3.215-0.712,7.09-1.066,11.621-1.066H456.28z"/>
					<path fill="#231F20" d="M494.302,240.922h16.857v70.433h-16.857V240.922z"/>
					<path fill="#231F20" d="M539.808,284.557c0,2.44,0.267,4.469,0.812,6.092c0.534,1.626,1.405,2.906,2.589,3.859
						c1.183,0.95,2.755,1.626,4.721,2.026c1.957,0.409,4.361,0.613,7.201,0.613h18.277c2.703,0,5.002-0.204,6.901-0.613
						c1.887-0.401,3.41-1.096,4.565-2.077c1.145-0.98,1.999-2.286,2.536-3.909c0.546-1.623,0.812-3.655,0.812-6.087v-43.641h16.954
						v45.365c0,4.668-0.475,8.595-1.428,11.77c-0.945,3.183-2.535,5.754-4.769,7.713c-2.228,1.971-5.191,3.388-8.877,4.27
						c-3.693,0.875-8.243,1.316-13.653,1.316h-24.973c-5.206,0-9.604-0.464-13.186-1.369c-3.587-0.92-6.534-2.387-8.829-4.421
						c-2.302-2.024-3.965-4.63-4.973-7.811c-1.023-3.181-1.524-7.004-1.524-11.468v-45.365h16.845V284.557z"/>
					<path fill="#231F20" d="M643.089,240.922l29.023,51.862l30.043-51.862h25.267v70.433h-16.947V259.59l-29.226,51.765h-18.266
						l-29.135-51.765v51.765h-16.842v-70.433H643.089z"/>
				</g>
			</g>
			<g>
				<g>
					<path fill="#7A9C49" d="M133.59,328.854c-24.382,0-46.931-14.141-57.662-36.09c4.806-0.289,9.375-2.875,12.635-7.184
						l20.367-26.939c1.519-2.016,3.442-3.125,5.417-3.125c1.971,0,3.898,1.11,5.427,3.125l20.357,26.938
						c3.464,4.583,8.398,7.21,13.537,7.21c5.212,0,10.146-2.628,13.61-7.21l20.359-26.939c1.53-2.015,3.457-3.125,5.424-3.125
						c1.496,0,2.979,0.659,4.297,1.908c0.296,2.568,0.44,4.931,0.44,7.217C197.798,300.048,168.994,328.854,133.59,328.854z"/>
					<g>
						<path fill="#7A9C49" d="M193.06,256.016c1.316,0,2.632,0.569,3.822,1.649c0.28,2.477,0.416,4.763,0.416,6.977
							c0,35.131-28.579,63.712-63.708,63.712c-12.285,0-24.206-3.515-34.475-10.164c-9.574-6.199-17.297-14.818-22.412-24.99
							c4.676-0.506,9.078-3.115,12.26-7.319l20.368-26.94c1.422-1.886,3.203-2.925,5.017-2.925c1.811,0,3.597,1.04,5.027,2.926
							l20.358,26.939c3.558,4.709,8.638,7.409,13.936,7.409h0.073c5.298,0,10.377-2.7,13.936-7.409l20.357-26.937
							C189.469,257.056,191.253,256.016,193.06,256.016 M193.06,255.016c-2.135,0-4.199,1.186-5.822,3.323l-20.359,26.939
							c-3.37,4.459-8.161,7.012-13.138,7.012c-0.005,0-0.021,0-0.035,0c-0.017,0-0.028,0-0.038,0c-4.983,0-9.768-2.553-13.138-7.012
							l-20.358-26.939c-1.621-2.137-3.683-3.323-5.825-3.323c-2.131,0-4.205,1.186-5.816,3.323l-20.367,26.939
							c-3.348,4.423-8.09,6.972-13.019,7.012c10.377,21.885,32.611,37.064,58.445,37.064c35.733,0,64.708-28.978,64.708-64.712
							c0-2.537-0.178-5.018-0.464-7.453C196.413,255.791,194.762,255.016,193.06,255.016L193.06,255.016z"/>
					</g>
				</g>
				<path fill="#6DABE4" d="M133.59,199.921c-35.741,0-64.721,28.972-64.721,64.721c0,5.685,0.807,11.17,2.187,16.43
					c1.224,0.94,2.582,1.487,3.972,1.487c2.145,0,4.213-1.177,5.835-3.309l20.358-26.939c3.362-4.466,8.159-7.027,13.127-7.027
					c4.974,0,9.759,2.561,13.134,7.027l19.585,25.908l0.847,1.031c1.613,2.125,3.671,3.294,5.792,3.309
					c2.112-0.015,4.173-1.185,5.783-3.309l0.861-1.031l19.585-25.908c3.365-4.466,8.155-7.027,13.125-7.027
					c0.789,0,1.582,0.088,2.358,0.214C187.256,219.097,162.665,199.921,133.59,199.921z M155.203,241.012
					c-3.742,0-6.758-3.032-6.758-6.767c0-3.73,3.017-6.76,6.758-6.76c3.742,0,6.765,3.03,6.765,6.76
					C161.968,237.98,158.944,241.012,155.203,241.012z"/>
			</g>
		</g>
		<g>
			<g>
				<path fill="#231F20" d="M238.179,310.244c-4.225-0.878-7.57-2.43-10.041-4.661c-2.464-2.234-4.202-5.26-5.215-9.074
					c-1.021-3.825-1.523-8.643-1.523-14.457v-8.924c0-6.897,0.52-12.44,1.571-16.628c1.047-4.196,2.836-7.42,5.372-9.69
					c2.542-2.263,5.948-3.784,10.245-4.565c4.291-0.77,9.719-1.162,16.277-1.162h15.008c6.893,0,12.58,0.319,17.038,0.96
					c4.467,0.647,7.978,1.848,10.548,3.604c2.569,1.759,4.362,4.188,5.376,7.297c1.012,3.112,1.514,7.138,1.514,12.072h-17.438
					c0-1.353-0.183-2.554-0.56-3.601c-0.368-1.049-1.169-1.927-2.383-2.638c-1.215-0.709-3.009-1.233-5.371-1.571
					c-2.367-0.338-5.544-0.505-9.533-0.505h-12.982c-3.786,0-6.847,0.15-9.182,0.458c-2.332,0.303-4.121,0.998-5.37,2.073
					c-1.252,1.084-2.082,2.705-2.483,4.868c-0.408,2.169-0.611,5.108-0.611,8.831v7.7c0,3.454,0.203,6.195,0.611,8.217
					c0.401,2.028,1.217,3.604,2.434,4.716c1.213,1.117,2.938,1.839,5.167,2.181c2.237,0.338,5.173,0.507,8.825,0.507h13.792
					c3.721,0,6.743-0.101,9.075-0.304c2.331-0.203,4.14-0.642,5.426-1.317c1.28-0.674,2.149-1.626,2.585-2.84
					c0.444-1.22,0.662-2.809,0.662-4.769h17.444c0,4.669-0.392,8.571-1.169,11.715c-0.772,3.144-2.398,5.667-4.868,7.552
					c-2.465,1.899-6.002,3.25-10.597,4.063c-4.596,0.809-10.646,1.215-18.147,1.215h-15.415
					C247.76,311.563,242.404,311.123,238.179,310.244z"/>
				<path fill="#231F20" d="M388.12,241.082v13.995h-55.168v12.983h53.437v14.096h-53.437v15.205h55.168v14.101h-72.005v-70.38
					H388.12z"/>
				<path fill="#231F20" d="M456.264,241.082c8.864,0,15.422,1.621,19.677,4.865c4.255,3.249,6.389,8.249,6.389,15.014h-18.15
					c0-1.082-0.118-1.996-0.354-2.742c-0.24-0.739-0.674-1.351-1.318-1.822c-0.643-0.474-1.526-0.814-2.641-1.012
					c-1.115-0.205-2.554-0.307-4.308-0.307h-28.297c-2.365,0-4.328,0.42-5.875,1.265c-1.563,0.846-2.332,2.623-2.332,5.322
					c0,1.422,0.197,2.521,0.604,3.299c0.403,0.778,0.962,1.353,1.667,1.723c0.722,0.376,1.582,0.61,2.593,0.714
					c1.012,0.097,2.126,0.183,3.344,0.25l31.139,1.213c3.986,0.14,7.483,0.461,10.497,0.968c3.005,0.508,5.509,1.486,7.499,2.942
					c1.991,1.451,3.508,3.527,4.514,6.235c1.015,2.702,1.527,6.388,1.527,11.053c0,3.79-0.404,7.011-1.22,9.684
					c-0.813,2.671-2.146,4.884-4.011,6.641c-1.855,1.763-4.308,3.044-7.349,3.855c-3.04,0.817-6.768,1.218-11.157,1.218h-34.885
					c-4.463,0-8.22-0.401-11.259-1.218c-3.041-0.812-5.493-2.044-7.349-3.7c-1.863-1.656-3.181-3.732-3.964-6.244
					c-0.77-2.493-1.157-5.44-1.157-8.817h17.24c0,1.757,0.773,3.18,2.33,4.259c1.553,1.082,3.513,1.618,5.881,1.618h28.192
					c3.717,0,6.497-0.466,8.318-1.416c1.829-0.948,2.73-2.838,2.73-5.68c0-1.286-0.16-2.379-0.499-3.297
					c-0.344-0.914-0.926-1.684-1.771-2.333c-0.852-0.637-2.03-1.128-3.554-1.465c-1.52-0.338-3.495-0.577-5.931-0.715l-26.979-1.113
					c-4.8-0.201-8.84-0.543-12.109-1.014c-3.289-0.474-5.972-1.37-8.072-2.686c-2.088-1.322-3.595-3.248-4.509-5.783
					c-0.91-2.535-1.373-5.999-1.373-10.396c0-3.715,0.474-6.881,1.422-9.485c0.945-2.595,2.433-4.716,4.459-6.334
					c2.034-1.624,4.647-2.79,7.86-3.498c3.211-0.713,7.086-1.066,11.615-1.066H456.264z"/>
				<path fill="#231F20" d="M494.258,241.082H511.1v70.38h-16.842V241.082z"/>
				<path fill="#231F20" d="M539.73,284.682c0,2.438,0.264,4.467,0.809,6.088c0.533,1.625,1.404,2.905,2.589,3.858
					c1.182,0.947,2.753,1.621,4.716,2.024c1.955,0.409,4.357,0.611,7.196,0.611h18.262c2.701,0,4.999-0.203,6.896-0.611
					c1.887-0.403,3.409-1.096,4.56-2.075c1.146-0.981,2-2.286,2.536-3.906c0.542-1.623,0.812-3.652,0.812-6.083v-43.607h16.938
					v45.33c0,4.662-0.474,8.588-1.427,11.761c-0.946,3.181-2.535,5.75-4.767,7.708c-2.225,1.967-5.187,3.38-8.869,4.263
					c-3.689,0.878-8.237,1.317-13.641,1.317h-24.955c-5.2,0-9.598-0.464-13.175-1.37c-3.583-0.916-6.527-2.382-8.822-4.416
					c-2.302-2.024-3.96-4.626-4.971-7.805c-1.02-3.178-1.522-6.999-1.522-11.458v-45.33h16.835V284.682z"/>
				<path fill="#231F20" d="M642.929,241.082l29.003,51.823l30.017-51.823h25.248v70.38h-16.933v-51.726l-29.204,51.726h-18.252
					l-29.111-51.726v51.726h-16.83v-70.38H642.929z"/>
			</g>
		</g>
	</g>
	<g>
		<path fill="#231F20" d="M748,248.265c0,4.091-3.212,7.302-7.391,7.302c-4.135,0-7.434-3.211-7.434-7.302
			c0-4.004,3.299-7.215,7.434-7.215C744.788,241.05,748,244.261,748,248.265z M735.022,248.265c0,3.211,2.376,5.763,5.631,5.763
			c3.167,0,5.498-2.552,5.498-5.719c0-3.211-2.331-5.807-5.543-5.807C737.398,242.502,735.022,245.098,735.022,248.265z
			 M739.466,252.048h-1.672v-7.215c0.66-0.132,1.584-0.219,2.771-0.219c1.365,0,1.98,0.219,2.508,0.528
			c0.396,0.307,0.704,0.88,0.704,1.583c0,0.791-0.616,1.408-1.496,1.672v0.087c0.703,0.265,1.099,0.793,1.319,1.761
			c0.219,1.099,0.352,1.539,0.528,1.803h-1.803c-0.221-0.265-0.353-0.924-0.572-1.759c-0.132-0.793-0.572-1.144-1.496-1.144h-0.791
			V252.048z M739.51,247.958h0.791c0.924,0,1.671-0.309,1.671-1.056c0-0.66-0.484-1.1-1.539-1.1c-0.44,0-0.749,0.044-0.924,0.088
			V247.958z"/>
	</g>
</g>
</svg>
