<?xml version="1.0" encoding="utf-8"?>
<!-- Generator: Adobe Illustrator 17.0.0, SVG Export Plug-In . SVG Version: 6.00 Build 0)  -->
<!DOCTYPE svg PUBLIC "-//W3C//DTD SVG 1.1//EN" "http://www.w3.org/Graphics/SVG/1.1/DTD/svg11.dtd">
<svg version="1.1" id="Layer_1" xmlns="http://www.w3.org/2000/svg" xmlns:xlink="http://www.w3.org/1999/xlink" x="0px" y="0px"
	 width="792px" height="612px" viewBox="0 0 792 612" enable-background="new 0 0 792 612" xml:space="preserve">
<g>
	<g>
		<g>
			<path fill="#231F20" d="M236.378,309.82c-4.234-0.879-7.586-2.435-10.062-4.671c-2.47-2.239-4.211-5.271-5.226-9.093
				c-1.023-3.833-1.526-8.661-1.526-14.487v-8.942c0-6.911,0.521-12.466,1.574-16.663c1.049-4.204,2.842-7.436,5.383-9.711
				c2.548-2.267,5.961-3.792,10.266-4.575c4.3-0.772,9.739-1.165,16.311-1.165h15.04c6.907,0,12.606,0.319,17.074,0.962
				c4.476,0.648,7.995,1.852,10.57,3.611c2.575,1.762,4.371,4.197,5.387,7.312c1.014,3.118,1.517,7.153,1.517,12.097h-17.474
				c0-1.356-0.184-2.56-0.562-3.608c-0.369-1.051-1.171-1.931-2.388-2.644c-1.217-0.711-3.015-1.235-5.382-1.574
				c-2.372-0.339-5.556-0.506-9.552-0.506h-13.009c-3.794,0-6.861,0.151-9.201,0.459c-2.337,0.303-4.13,1-5.381,2.077
				c-1.255,1.086-2.086,2.711-2.488,4.878c-0.409,2.173-0.612,5.118-0.612,8.849v7.716c0,3.461,0.203,6.208,0.612,8.235
				c0.402,2.033,1.219,3.611,2.439,4.726c1.216,1.119,2.944,1.843,5.178,2.185c2.242,0.339,5.184,0.508,8.843,0.508h13.821
				c3.729,0,6.757-0.102,9.094-0.304c2.336-0.203,4.148-0.643,5.437-1.32c1.283-0.675,2.154-1.63,2.59-2.846
				c0.445-1.223,0.663-2.815,0.663-4.779h17.48c0,4.679-0.393,8.589-1.172,11.739c-0.774,3.15-2.403,5.678-4.878,7.568
				c-2.47,1.903-6.014,3.257-10.619,4.071c-4.606,0.811-10.668,1.217-18.185,1.217h-15.447
				C245.978,311.141,240.612,310.7,236.378,309.82z"/>
			<path fill="#231F20" d="M386.63,240.514v14.024h-55.282v13.01h53.548v14.125h-53.548v15.237h55.282v14.13h-72.154v-70.526H386.63
				z"/>
			<path fill="#231F20" d="M454.916,240.514c8.882,0,15.454,1.624,19.718,4.875c4.264,3.256,6.403,8.266,6.403,15.045h-18.188
				c0-1.084-0.118-2-0.355-2.748c-0.241-0.74-0.675-1.354-1.321-1.826c-0.644-0.475-1.529-0.816-2.646-1.015
				c-1.118-0.206-2.559-0.307-4.317-0.307h-28.356c-2.369,0-4.337,0.421-5.887,1.268c-1.567,0.848-2.337,2.628-2.337,5.333
				c0,1.425,0.198,2.527,0.605,3.306c0.403,0.78,0.964,1.356,1.67,1.727c0.723,0.377,1.586,0.611,2.598,0.716
				c1.014,0.097,2.13,0.184,3.351,0.251l31.204,1.216c3.994,0.141,7.498,0.462,10.519,0.97c3.011,0.509,5.52,1.489,7.515,2.948
				c1.996,1.454,3.515,3.535,4.524,6.248c1.017,2.708,1.53,6.401,1.53,11.076c0,3.798-0.405,7.026-1.222,9.704
				c-0.815,2.677-2.15,4.894-4.02,6.655c-1.858,1.767-4.317,3.05-7.364,3.863c-3.046,0.819-6.782,1.22-11.18,1.22h-34.957
				c-4.473,0-8.237-0.401-11.283-1.22c-3.047-0.814-5.504-2.049-7.364-3.708c-1.867-1.659-3.187-3.74-3.972-6.257
				c-0.772-2.499-1.159-5.451-1.159-8.835H415.9c0,1.761,0.775,3.187,2.334,4.268c1.556,1.085,3.521,1.622,5.893,1.622h28.251
				c3.725,0,6.51-0.467,8.335-1.419c1.833-0.95,2.735-2.844,2.735-5.692c0-1.289-0.16-2.384-0.5-3.303
				c-0.344-0.916-0.928-1.688-1.775-2.338c-0.854-0.639-2.035-1.13-3.561-1.468c-1.524-0.339-3.502-0.578-5.944-0.717l-27.035-1.115
				c-4.81-0.202-8.858-0.544-12.134-1.016c-3.296-0.475-5.984-1.372-8.089-2.692c-2.092-1.325-3.603-3.254-4.518-5.795
				c-0.912-2.54-1.376-6.011-1.376-10.417c0-3.723,0.475-6.895,1.425-9.505c0.947-2.6,2.438-4.725,4.469-6.347
				c2.039-1.628,4.657-2.796,7.876-3.505c3.218-0.714,7.1-1.068,11.639-1.068H454.916z"/>
			<path fill="#231F20" d="M492.988,240.514h16.877v70.526h-16.877V240.514z"/>
			<path fill="#231F20" d="M538.554,284.205c0,2.443,0.265,4.476,0.811,6.101c0.534,1.628,1.406,2.911,2.594,3.866
				c1.185,0.949,2.758,1.624,4.726,2.028c1.959,0.41,4.366,0.612,7.211,0.612h18.299c2.707,0,5.009-0.203,6.911-0.612
				c1.891-0.403,3.416-1.098,4.57-2.079c1.148-0.983,2.004-2.291,2.542-3.914c0.543-1.627,0.814-3.659,0.814-6.095v-43.698h16.974
				v45.425c0,4.672-0.475,8.606-1.43,11.785c-0.948,3.187-2.54,5.762-4.777,7.724c-2.23,1.971-5.197,3.387-8.888,4.272
				c-3.697,0.88-8.254,1.32-13.669,1.32h-25.007c-5.211,0-9.618-0.465-13.203-1.372c-3.591-0.918-6.541-2.387-8.84-4.426
				c-2.306-2.028-3.968-4.635-4.981-7.821c-1.022-3.184-1.525-7.014-1.525-11.482v-45.425h16.87V284.205z"/>
			<path fill="#231F20" d="M641.967,240.514l29.063,51.931l30.079-51.931h25.3v70.526h-16.968v-51.834l-29.265,51.834h-18.29
				l-29.172-51.834v51.834h-16.865v-70.526H641.967z"/>
		</g>
	</g>
	<g>
		<g>
			<path fill="#5C8727" d="M191.353,254.627c-2.138,0-4.205,1.187-5.83,3.328l-20.385,26.972c-3.377,4.466-8.172,7.024-13.156,7.024
				c-0.006,0-0.022,0-0.034,0c-0.016,0-0.028,0-0.039,0c-4.99,0-9.782-2.558-13.154-7.024l-20.384-26.972
				c-1.623-2.142-3.687-3.328-5.834-3.328c-2.132,0-4.211,1.187-5.823,3.328L86.32,284.927c-3.353,4.43-8.1,6.983-13.036,7.024
				c10.39,21.914,32.654,37.111,58.52,37.111c35.781,0,64.794-29.014,64.794-64.797c0-2.54-0.18-5.025-0.465-7.463
				C194.709,255.402,193.058,254.627,191.353,254.627z"/>
		</g>
		<path fill="#6CADDF" d="M131.805,199.46C96.016,199.46,67,228.468,67,264.265c0,5.692,0.808,11.184,2.189,16.45
			c1.226,0.944,2.586,1.491,3.977,1.491c2.149,0,4.219-1.179,5.842-3.315l20.384-26.972c3.368-4.473,8.169-7.035,13.143-7.035
			c4.982,0,9.773,2.562,13.152,7.035l19.613,25.94l0.848,1.033c1.614,2.129,3.675,3.301,5.799,3.315
			c2.114-0.015,4.178-1.187,5.788-3.315l0.861-1.033l19.612-25.94c3.371-4.473,8.164-7.035,13.143-7.035
			c0.791,0,1.583,0.087,2.36,0.213C185.54,218.662,160.918,199.46,131.805,199.46z M153.446,240.605
			c-3.745,0-6.767-3.036-6.767-6.776c0-3.735,3.022-6.769,6.767-6.769c3.745,0,6.774,3.034,6.774,6.769
			C160.22,237.568,157.191,240.605,153.446,240.605z"/>
	</g>
	<g>
		<path fill="#231F20" d="M733.361,241.654h-3.331v-1.183h8.038v1.183h-3.331v8.753h-1.376V241.654z"/>
		<path fill="#231F20" d="M748.602,241.461h-0.027l-3.179,8.946h-1.294l-3.18-8.946h-0.027v8.946h-1.376v-9.936h2.464l2.862,8.188
			h0.028l2.808-8.188h2.298v9.936h-1.377V241.461z"/>
	</g>
</g>
</svg>
